<?xml version="1.0" encoding="utf-8"?>
<!-- Svg Vector Icons : http://www.onlinewebfonts.com/icon -->
<!DOCTYPE svg PUBLIC "-//W3C//DTD SVG 1.1//EN" "http://www.w3.org/Graphics/SVG/1.1/DTD/svg11.dtd">
<svg version="1.1" xmlns="http://www.w3.org/2000/svg" xmlns:xlink="http://www.w3.org/1999/xlink" x="0px" y="0px" viewBox="0 0 1000 1000" enable-background="new 0 0 1000 1000" xml:space="preserve">
<metadata> Svg Vector Icons : http://www.onlinewebfonts.com/icon </metadata>
<g><path d="M878.6,789.5H522.3v155.9h267.3V990H210.4v-44.6h267.3V789.5H121.4C59.9,789.5,10,739.7,10,678.2V121.3C10,59.9,59.9,10,121.4,10h757.3C940.1,10,990,59.9,990,121.3v556.8C990,739.7,940.1,789.5,878.6,789.5L878.6,789.5L878.6,789.5z M945.4,143.6c0-61.5-27.6-89.1-89.1-89.1H143.6c-61.5,0-89.1,27.6-89.1,89.1v512.3c0,61.5,27.6,89.1,89.1,89.1h712.7c61.5,0,89.1-27.6,89.1-89.1L945.4,143.6L945.4,143.6L945.4,143.6z M745,388.6c-14.4,0-28.1-3-40.7-7.9L631.9,484c14.8,15.9,24,37.1,24,60.5c0,49.2-39.9,89.1-89.1,89.1c-49.2,0-89.1-39.9-89.1-89.1c0-14.6,3.8-28.1,10-40.3L384.6,385.7c-5.9,1.7-11.9,2.9-18.3,2.9c-4.7,0-9.3-0.5-13.7-1.4l-86.2,121.1c6.8,10.4,10.8,22.8,10.8,36.2c0,36.9-29.9,66.8-66.8,66.8c-36.9,0-66.9-29.9-66.9-66.8c0-36.9,29.9-66.8,66.8-66.8c7.3,0,14.1,1.4,20.6,3.6l83.7-117.6c-9.3-11.5-15.1-25.9-15.1-41.9c0-36.9,29.9-66.9,66.8-66.9s66.8,29.9,66.8,66.8c0,14.2-4.5,27.3-12,38.1l96.2,110.5c14.1-9.4,31.1-15,49.4-15c9.6,0,18.7,1.9,27.4,4.7l72.7-103.7c-20.5-20.2-33.2-48.2-33.2-79.2c0-61.5,49.8-111.3,111.4-111.3c61.5,0,111.4,49.8,111.4,111.3C856.4,338.8,806.5,388.6,745,388.6L745,388.6L745,388.6z M210.4,522.3c-12.3,0-22.3,10-22.3,22.3c0,12.3,10,22.3,22.3,22.3c12.3,0,22.3-10,22.3-22.3C232.7,532.2,222.7,522.3,210.4,522.3L210.4,522.3L210.4,522.3z M366.4,299.5c-12.3,0-22.3,9.9-22.3,22.3c0,12.3,10,22.3,22.3,22.3c12.3,0,22.3-10,22.3-22.3C388.6,309.5,378.7,299.5,366.4,299.5L366.4,299.5L366.4,299.5z M566.8,500c-24.6,0-44.5,20-44.5,44.5c0,24.6,20,44.6,44.5,44.6c24.6,0,44.6-20,44.6-44.6C611.3,520,591.4,500,566.8,500L566.8,500L566.8,500z M745,210.5c-36.9,0-66.8,29.9-66.8,66.8c0,36.9,29.9,66.8,66.8,66.8c36.9,0,66.8-29.9,66.8-66.8C811.8,240.4,781.9,210.5,745,210.5L745,210.5L745,210.5z"/></g>
</svg>